<svg t="1685357148147" class="icon" viewBox="0 0 1024 1024" version="1.1" xmlns="http://www.w3.org/2000/svg" p-id="4226" width="200" height="200"><path d="M809.813333 765.397333c-18.517333 0-35.498667-10.837333-43.264-27.818666-10.794667-23.168 1.578667-50.986667 24.746667-60.245334 58.709333-24.746667 97.322667-83.456 97.322667-148.352 0-88.064-72.618667-160.682667-160.682667-160.682666h-4.608c-20.096 0-38.656-13.909333-44.8-32.426667-34.005333-117.418667-139.093333-194.688-261.12-194.688-149.888 0-273.493333 123.605333-273.493333 273.493333 0 92.672 46.336 179.2 123.605333 230.186667 21.632 13.909333 27.818667 43.264 13.909333 64.896a47.189333 47.189333 0 0 1-64.896 13.909333C113.024 654.122667 51.2 539.776 51.2 414.72c0-200.874667 165.333333-366.208 366.165333-366.208 151.466667 0 282.752 89.6 339.925334 227.114667C884.053333 291.072 981.333333 397.653333 981.333333 527.445333a252.714667 252.714667 0 0 1-154.496 233.301334 31.104 31.104 0 0 1-17.024 4.650666z" fill="#e6e6e6" p-id="4227"></path><path d="M667.690667 709.76c-12.373333 0-23.168-4.608-32.426667-13.909333l-120.533333-117.418667-118.997334 118.997333c-18.517333 18.517333-47.872 18.517333-64.853333 0-18.56-18.56-18.56-47.914667 0-64.896l151.381333-151.466666c17.024-16.981333 47.914667-16.981333 64.896 0l151.466667 151.466666c18.517333 18.517333 18.517333 47.872 0 64.853334-7.765333 9.301333-20.138667 12.373333-30.933333 12.373333z" fill="#e6e6e6" p-id="4228"></path><path d="M514.730667 975.530667c-26.282667 0-46.378667-20.053333-46.378667-46.378667v-364.629333c0-26.24 20.096-46.336 46.378667-46.336 26.24 0 46.336 20.053333 46.336 46.336v364.629333c0 26.282667-20.053333 46.378667-46.336 46.378667z" fill="#e6e6e6" p-id="4229"></path></svg>