<svg t="1685357130700" class="icon" viewBox="0 0 1024 1024" version="1.1" xmlns="http://www.w3.org/2000/svg" p-id="4034" width="200" height="200"><path d="M808.277333 768.554667c-18.730667 0-35.882667-10.922667-43.690666-28.16-10.922667-23.466667 1.578667-51.626667 24.96-61.013334 59.264-25.002667 98.218667-84.48 98.218666-150.186666a162.304 162.304 0 0 0-162.133333-162.688h-4.693333c-20.266667 0-38.997333-14.08-45.226667-32.853334-34.304-118.912-140.330667-197.12-263.509333-197.12-151.253333 0-275.968 125.141333-275.968 276.906667 0 93.866667 46.762667 181.461333 124.714666 233.088 21.845333 14.08 28.074667 43.818667 14.08 65.706667a47.530667 47.530667 0 0 1-65.536 14.08A375.381333 375.381333 0 0 1 42.666667 413.44C42.666667 210.048 209.493333 42.666667 412.202667 42.666667c152.832 0 285.354667 90.752 343.04 229.973333C881.536 288.298667 981.333333 396.245333 981.333333 527.658667a255.914667 255.914667 0 0 1-155.904 236.202666 31.317333 31.317333 0 0 1-17.152 4.693334z" fill="#e6e6e6" p-id="4035"></path><path d="M510.421333 981.333333a44.8 44.8 0 0 1-32.725333-14.08l-152.789333-153.301333c-18.730667-18.773333-18.730667-48.512 0-65.706667 18.688-18.773333 48.341333-18.773333 65.493333 0l120.021333 120.448 120.106667-120.448c18.688-18.773333 48.298667-18.773333 65.450667 0 18.730667 18.773333 18.730667 48.469333 0 65.706667l-152.789334 153.301333c-7.808 9.386667-20.266667 14.08-32.768 14.08z" fill="#e6e6e6" p-id="4036"></path><path d="M510.421333 928.128a46.037333 46.037333 0 0 1-46.762666-46.933333V512c0-26.581333 20.266667-46.933333 46.762666-46.933333 26.538667 0 46.805333 20.352 46.805334 46.933333v369.194667c0 26.624-20.266667 46.933333-46.805334 46.933333z" fill="#e6e6e6" p-id="4037"></path></svg>